<svg width="773" height="789" viewBox="0 0 773 789" fill="none" xmlns="http://www.w3.org/2000/svg">
<rect width="773" height="789" fill="white"/>
<path d="M393.467 49.6883L343.779 55.2624L338.204 5.57408L387.893 0L393.467 49.6883Z" fill="#86E8DA"/>
<path d="M474.22 60.867L424.593 54.7695L430.691 5.14267L480.318 11.2402L474.22 60.867Z" fill="#86E8DA"/>
<path d="M549.88 91.1487L503.076 73.5589L520.665 26.7551L567.469 44.3448L549.88 91.1487Z" fill="#86E8DA"/>
<path d="M615.977 138.716L574.721 110.468L602.969 69.2123L644.225 97.4602L615.977 138.716Z" fill="#86E8DA"/>
<path d="M668.634 200.718L635.454 163.315L672.857 130.134L706.038 167.538L668.634 200.718Z" fill="#86E8DA"/>
<path d="M704.797 273.453L681.842 229.034L726.261 206.078L749.216 250.497L704.797 273.453Z" fill="#86CECF"/>
<path d="M722.421 352.605L711.278 303.862L760.02 292.719L771.163 341.461L722.421 352.605Z" fill="#86CECF"/>
<path d="M720.576 433.524L722.101 383.547L772.078 385.072L770.553 435.049L720.576 433.524Z" fill="#86CECF"/>
<path d="M699.481 511.51L713.68 463.568L761.622 477.767L747.423 525.709L699.481 511.51Z" fill="#86CECF"/>
<path d="M660.46 582.091L686.444 539.373L729.162 565.357L703.179 608.075L660.46 582.091Z" fill="#86CECF"/>
<path d="M605.835 641.268L641.873 606.61L676.532 642.649L640.493 677.307L605.835 641.268Z" fill="#86CECF"/>
<path d="M538.774 685.717L582.443 661.365L606.794 705.035L563.125 729.386L538.774 685.717Z" fill="#86CECF"/>
<path d="M463.112 712.95L511.511 700.396L524.065 748.794L475.667 761.348L463.112 712.95Z" fill="#86CECF"/>
<path d="M383.149 721.435L433.149 721.333L433.251 771.333L383.251 771.435L383.149 721.435Z" fill="#86CECF"/>
<path d="M303.423 710.673L351.917 722.853L339.737 771.347L291.243 759.167L303.423 710.673Z" fill="#86CECF"/>
<path d="M228.48 681.236L272.59 704.781L249.045 748.89L204.936 725.346L228.48 681.236Z" fill="#86CECF"/>
<path d="M162.628 634.748L199.864 668.117L166.496 705.353L129.26 671.985L162.628 634.748Z" fill="#86CECF"/>
<path d="M109.689 573.818L138.061 614.989L96.8899 643.36L68.5183 602.189L109.689 573.818Z" fill="#86CECF"/>
<path d="M72.7795 501.903L90.8524 548.523L44.233 566.596L26.1601 519.976L72.7795 501.903Z" fill="#86CECF"/>
<path d="M54.1117 423.132L61.0363 472.65L11.5181 479.575L4.59351 430.056L54.1117 423.132Z" fill="#86CECF"/>
<path d="M54.8524 342.063L50.3626 391.861L0.564566 387.371L5.05437 337.573L54.8524 342.063Z" fill="#86CECF"/>
<path d="M75.0377 263.428L59.4324 310.93L11.93 295.325L27.5353 247.823L75.0377 263.428Z" fill="#86CECF"/>
<path d="M113.556 191.847L87.6681 234.623L44.8919 208.735L70.7801 165.959L113.556 191.847Z" fill="#86E8DA"/>
<path d="M168.204 131.552L133.357 167.408L97.5004 132.562L132.347 96.705L168.204 131.552Z" fill="#86E8DA"/>
<path d="M235.805 86.1254L193.765 113.193L166.698 71.1533L208.738 44.0857L235.805 86.1254Z" fill="#86E8DA"/>
<path d="M312.398 58.2809L265.309 75.094L248.496 28.0055L295.585 11.1925L312.398 58.2809Z" fill="#86E8DA"/>
<path d="M725 387.851C725 574.247 573.896 725.351 387.5 725.351C201.104 725.351 50 574.247 50 387.851C50 201.455 201.104 50.351 387.5 50.351C573.896 50.351 725 201.455 725 387.851Z" fill="#86CECF"/>
<path d="M182.386 186.395C168.484 200.549 156.03 216.159 145.26 233.009C118.526 274.833 103.076 322.867 100.414 372.434L185.286 376.992C189.143 303.999 231.654 241.255 292.726 208.852L252.971 133.768C228.289 146.836 205.747 163.375 185.989 182.791C184.777 183.982 183.576 185.183 182.386 186.395Z" fill="#86E8DA"/>
<path fill-rule="evenodd" clip-rule="evenodd" d="M453.592 108.72C455.244 109.116 456.892 109.527 458.537 109.952C485.036 116.805 510.527 127.435 534.199 141.603C534.485 141.774 534.771 141.946 535.056 142.118L535.027 142.166C577.119 167.752 611.936 203.727 636.132 246.647C645.953 264.067 653.89 282.392 659.861 301.311C660.372 302.931 660.869 304.555 661.351 306.184C669.125 332.428 673.142 359.752 673.19 387.341C673.191 387.674 673.191 388.007 673.19 388.341L588.231 388.192C588.292 319.167 552.964 252.281 490.514 214.574C490.413 214.513 490.313 214.453 490.212 214.392L490.257 214.318C431.26 179.221 356.177 175.272 292.024 209.206C291.92 209.26 291.816 209.315 291.713 209.37L251.907 134.273C252.201 134.117 252.496 133.961 252.791 133.806C296.425 110.872 345.229 99.5392 394.515 100.905C414.505 101.459 434.3 104.094 453.592 108.72Z" fill="#86CECF"/>
<path d="M268.95 72.1515C267.054 72.8648 265.163 73.5949 263.28 74.3415C241.28 83.0624 220.156 94.0714 200.269 107.245C189.164 114.601 178.531 122.576 168.413 131.119C133.858 160.635 105.334 197.005 84.9463 238.124L174.364 283.617C174.428 283.492 174.491 283.367 174.555 283.242C213.877 206.116 289.854 158.46 371.504 152.234L371.511 152.336C371.651 152.326 371.79 152.316 371.93 152.307C458.739 146.258 539.101 187.292 586.396 254.69L666.822 198.357C606.183 109.147 503.926 50.5073 387.964 50.3513C380.547 50.3631 373.119 50.6155 365.692 51.1108L365.688 51.0445C365.661 51.0462 365.635 51.0479 365.609 51.0496C365.238 51.0756 364.868 51.1023 364.498 51.1295C331.677 53.5442 299.51 60.6595 268.95 72.1515Z" fill="#86E8DA"/>
<path d="M771 385.851C771 598.757 598.406 771.351 385.5 771.351C172.594 771.351 0 598.757 0 385.851C0 172.945 172.594 0.350886 385.5 0.350886C598.406 0.350886 771 172.945 771 385.851Z" fill="url(#paint0_linear_41_130)" style="mix-blend-mode:hue"/>
<path d="M398.191 196.177L358.365 199.902L354.639 160.076L394.466 156.351L398.191 196.177Z" fill="white"/>
<path d="M493.467 233.072L456.824 217.032L472.864 180.389L509.507 196.429L493.467 233.072Z" fill="white"/>
<path d="M556.738 312.789L533.4 280.303L565.885 256.965L589.224 289.45L556.738 312.789Z" fill="white"/>
<path d="M571.089 412.735L568.807 372.8L608.742 370.518L611.024 410.453L571.089 412.735Z" fill="white"/>
<path d="M533.954 505.557L554.131 471.019L588.669 491.196L568.492 525.734L533.954 505.557Z" fill="white"/>
<path d="M456.382 567.431L492.258 549.74L509.948 585.615L474.073 603.306L456.382 567.431Z" fill="white"/>
<path d="M358.585 583.17L398.371 587.296L394.245 627.083L354.459 622.957L358.585 583.17Z" fill="white"/>
<path d="M265.388 548.564L297.624 572.246L273.942 604.482L241.706 580.8L265.388 548.564Z" fill="white"/>
<path d="M201.22 471.808L218.087 508.078L181.817 524.945L164.95 488.675L201.22 471.808Z" fill="white"/>
<path d="M183.83 372.586L181.956 412.542L142 410.668L143.874 370.711L183.83 372.586Z" fill="white"/>
<path d="M218.809 277.444L198.951 312.167L164.229 292.309L184.086 257.586L218.809 277.444Z" fill="white"/>
<path d="M297.343 212.558L263.837 234.408L241.988 200.903L275.493 179.053L297.343 212.558Z" fill="white"/>
<path d="M332 289.351H450V788.351H332V289.351Z" fill="#BF8685"/>
<path d="M450 289.503V355.457L399.232 385.009L370.556 335.748L450 289.503Z" fill="#B57473"/>
<path d="M332 540.351H362V724.351H332V540.351Z" fill="#D9B6A9"/>
<path d="M362 535.351H404V679.351H362V535.351Z" fill="#CFAEAA"/>
<path d="M363 724.351H426V788.351H363V724.351Z" fill="#C58F84"/>
<path d="M332 724.351H363V767.351H332V724.351Z" fill="#C3868D"/>
<path d="M363 724.351H404V773.351H363V724.351Z" fill="#D8B185"/>
<path d="M362 675.351H404V724.351H362V675.351Z" fill="#CDA385"/>
<path d="M404 491.351H428V601.351H404V491.351Z" fill="#CFA488"/>
<path d="M332 491.351H368V540.351H332V491.351Z" fill="#CBAFB6"/>
<path d="M368 491.351H404V540.351H368V491.351Z" fill="#C9969C"/>
<path d="M404 601.351H428V675.351H404V601.351Z" fill="#D08791"/>
<path d="M390 269.351L450.189 289.162L390 309.351L331.811 289.162L390 269.351Z" fill="#BBDDDD"/>
<path d="M556 467.351H219L278 417.351H497L556 467.351Z" fill="#828BAB"/>
<path fill-rule="evenodd" clip-rule="evenodd" d="M278 382.351H497V417.351H278V382.351Z" fill="#74D8E7"/>
<path d="M556 332.351V467.351L497 417.351V382.351L556 332.351Z" fill="#82A2B7"/>
<path d="M219 467.351V332.351L278 382.351V417.351L219 467.351Z" fill="#8992B0"/>
<path d="M219 332.351H556L497 382.351H278L219 332.351Z" fill="#74D8E7"/>
<path d="M421 382.351H403V355.351H421V382.351Z" fill="#D3E9E9"/>
<path d="M508 373.029L497 382.351H450V362.351H479V366.351H508V373.029Z" fill="#D3E9E9"/>
<path d="M340 332.351V382.351H278L219 332.351H340Z" fill="#D3E9E9"/>
<defs>
<linearGradient id="paint0_linear_41_130" x1="800.745" y1="370.165" x2="82.1374" y2="592.961" gradientUnits="userSpaceOnUse">
<stop offset="0.155" stop-color="#3D83ED"/>
<stop offset="0.72" stop-color="#48EAA6"/>
<stop offset="1" stop-color="#2DCCC2"/>
</linearGradient>
</defs>
</svg>
